<?xml version="1.0" encoding="UTF-8" standalone="no"?>
<!-- Created with Inkscape (http://www.inkscape.org/) -->

<svg
   width="145.675mm"
   height="40.347755mm"
   viewBox="0 0 145.675 40.347755"
   version="1.1"
   id="svg1"
   xml:space="preserve"
   xmlns:xlink="http://www.w3.org/1999/xlink"
   xmlns="http://www.w3.org/2000/svg"
   xmlns:svg="http://www.w3.org/2000/svg"><defs
     id="defs1"><linearGradient
       id="linearGradient9"><stop
         style="stop-color:#1fff92;stop-opacity:1;"
         offset="0.22247706"
         id="stop7" /><stop
         style="stop-color:#00e577;stop-opacity:1;"
         offset="0.64220184"
         id="stop8" /><stop
         style="stop-color:#00cc6c;stop-opacity:1;"
         offset="1"
         id="stop9" /></linearGradient><rect
       x="108.22629"
       y="424.88837"
       width="229.5815"
       height="103.06494"
       id="rect1" /><linearGradient
       xlink:href="#linearGradient9"
       id="linearGradient5"
       x1="114.56379"
       y1="38.318092"
       x2="114.56379"
       y2="55.379089"
       gradientUnits="userSpaceOnUse"
       gradientTransform="translate(3.7131056,-21.350357)" /></defs><g
     id="layer1"
     transform="translate(-31.320133,-12.404478)"><text
       xml:space="preserve"
       transform="matrix(0.26458333,0,0,0.26458333,1.1899415,-98.014624)"
       id="text1"
       style="font-style:normal;font-variant:normal;font-weight:500;font-stretch:normal;font-size:85.3333px;font-family:Poppins;-inkscape-font-specification:'Poppins Medium';text-align:start;writing-mode:lr-tb;direction:ltr;white-space:pre;shape-inside:url(#rect1);display:inline;fill:#1a1a1a;fill-opacity:0;stroke:#000000;stroke-width:0.644"><tspan
         x="108.22656"
         y="499.55531"
         id="tspan5"><tspan
           style="fill:#000000;fill-opacity:1;stroke-opacity:0"
           id="tspan4">ukon </tspan></tspan></text><path
       style="fill:#000000;fill-opacity:1;stroke:#000000;stroke-width:0.170392;stroke-opacity:0"
       d="m 167.27991,34.923698 9.62693,-1.75e-4 0.003,-2.284375 c -1.61855,-0.08519 -2.59854,0.140017 -3.11711,-2.285751 0.5736,-2.783194 1.50935,-5.170942 1.02844,-8.313163 1.25209,-2.95656 2.20002,-5.396826 0.71419,-9.084487 0,0 -2.50482,2.425539 -2.14257,7.798948 l -4.98048,0.05713 c 0,0 0.82231,-2.825483 -2.07571,-8.198892 -1.29298,3.598548 -0.32001,7.714993 0.53186,8.708837 0.22716,6.786536 0.33119,5.962498 1.26824,8.745261 l 2.74145,5.14e-4 -0.0282,0.885252 -3.57025,0.05799 -2.94401,-8.257918 c -1.56176,-1.476569 -8.22918,0.850649 -8.71191,4.258115 -3.97537,-1.53336 -5.00036,4.2533 -0.45708,3.713784 -0.14198,2.498808 0.45949,3.943529 0.85703,4.227485 h 10.16971 c 0,0 0.25006,-1.631964 -0.91416,-2.285061 l -3.34241,-0.0284 c -0.70989,-2.35683 -0.78422,-2.408106 -2.97068,-3.799488 2.44202,-0.340747 2.79962,0.571351 2.79962,0.571351 l 1.31359,2.142224 3.17152,3.39e-4 c 0.51112,0.653098 0.88662,1.553157 1.0286,3.370472 z"
       id="path7" /><text
       xml:space="preserve"
       style="font-weight:500;font-size:22.5778px;font-family:Poppins;-inkscape-font-specification:'Poppins Medium';text-align:start;writing-mode:lr-tb;direction:ltr;text-anchor:start;fill:url(#linearGradient5);fill-opacity:1;stroke:none;stroke-width:0.170392;stroke-opacity:1"
       x="92.109215"
       y="34.337166"
       id="text2"><tspan
         id="tspan1"
         style="fill:url(#linearGradient5);fill-opacity:1;stroke:none;stroke-width:0.170392;stroke-opacity:1"
         x="92.109215"
         y="34.337166">sites</tspan></text><text
       xml:space="preserve"
       style="font-weight:500;font-size:9.87778px;font-family:Poppins;-inkscape-font-specification:'Poppins Medium';text-align:start;writing-mode:lr-tb;direction:ltr;text-anchor:start;fill:#00e083;stroke-width:0.285947"
       x="32.166695"
       y="50.193886"
       id="text7"><tspan
         id="tspan7"
         style="font-style:italic;font-size:9.87778px;fill:#000000;fill-opacity:1;stroke-width:0.285947"
         x="32.166695"
         y="50.193886">Free website Cyber Monday</tspan></text></g></svg>
