<?xml version="1.0" standalone="no"?>
<!DOCTYPE svg PUBLIC "-//W3C//DTD SVG 20010904//EN"
 "http://www.w3.org/TR/2001/REC-SVG-20010904/DTD/svg10.dtd">
<svg version="1.0" xmlns="http://www.w3.org/2000/svg"
 width="497.000000pt" height="855.000000pt" viewBox="0 0 497.000000 855.000000"
 preserveAspectRatio="xMidYMid meet">

<g transform="rotate(90) scale(0.100000,-0.100000)"
fill="##D4AF37" stroke="B8860B" style="fill: #FFD700; stroke: #B8860B; stroke-width: 3;">
<path d="M737 4703 c-4 -3 -7 -37 -7 -75 0 -157 -90 -309 -231 -391 -64 -37
-172 -67 -240 -67 l-59 0 0 -101 c0 -93 2 -103 25 -131 33 -39 33 -87 0 -126
-22 -27 -25 -39 -25 -117 0 -78 3 -90 25 -117 33 -39 33 -87 0 -126 -23 -27
-25 -38 -25 -120 0 -66 4 -93 14 -99 41 -25 47 -98 11 -141 -23 -27 -25 -38
-25 -120 0 -66 4 -93 14 -99 41 -25 47 -98 11 -141 -23 -27 -25 -38 -25 -120
0 -66 4 -93 14 -99 41 -25 47 -98 11 -141 -23 -27 -25 -38 -25 -118 0 -82 2
-91 25 -113 34 -32 34 -89 0 -129 -22 -27 -25 -39 -25 -112 0 -73 3 -85 25
-112 34 -40 34 -96 0 -136 -22 -26 -25 -39 -25 -110 0 -70 3 -86 25 -118 32
-48 32 -94 0 -132 -22 -27 -25 -39 -25 -112 0 -73 3 -85 25 -112 34 -40 34
-96 0 -136 -23 -28 -25 -37 -25 -136 l0 -106 69 0 c192 0 369 -127 438 -313 8
-23 18 -80 22 -127 l6 -85 3558 -3 3557 -2 0 63 c0 179 107 344 275 423 62 30
90 37 167 42 l93 7 3 103 c3 103 2 104 -28 138 -39 45 -39 83 0 127 28 33 30
40 30 118 0 75 -2 85 -25 109 -14 15 -28 43 -31 62 -5 29 -1 41 25 70 30 34
31 40 31 121 0 72 -3 88 -18 99 -49 34 -52 106 -7 148 23 22 25 31 25 111 0
74 -3 90 -18 101 -49 34 -52 106 -7 148 23 21 25 31 25 106 0 68 -3 86 -19
101 -49 47 -51 111 -6 153 23 21 25 31 25 106 0 62 -4 85 -16 95 -50 41 -54
117 -9 159 23 21 25 31 25 106 0 68 -3 86 -19 101 -49 47 -51 111 -6 153 23
21 25 31 25 105 0 68 -3 85 -19 99 -27 25 -44 71 -37 100 3 13 17 38 31 54 22
26 25 39 25 107 0 68 -3 81 -25 107 -14 16 -28 41 -31 54 -7 29 10 75 37 100
16 15 19 31 19 116 l0 98 -58 0 c-127 0 -253 53 -342 143 -92 92 -139 206
-140 335 l0 62 -3553 0 c-1955 0 -3557 -3 -3560 -7z m7046 -160 c49 -236 233
-412 459 -440 l63 -8 3 -42 c2 -32 -3 -51 -25 -84 -38 -58 -38 -130 0 -188 34
-51 37 -120 7 -158 -46 -58 -46 -148 -1 -211 28 -40 29 -114 1 -149 -46 -58
-46 -148 -1 -211 28 -40 29 -114 1 -149 -46 -58 -46 -148 -1 -211 30 -43 28
-102 -6 -160 -38 -64 -38 -135 0 -189 36 -52 36 -109 0 -171 -38 -64 -38 -135
0 -189 36 -52 36 -109 0 -171 -37 -63 -37 -136 1 -190 33 -48 36 -117 7 -154
-11 -14 -25 -45 -31 -71 -13 -51 -2 -103 31 -146 26 -32 25 -110 0 -143 -46
-59 -47 -144 -1 -213 13 -19 20 -47 20 -76 l0 -46 -56 -7 c-30 -3 -90 -20
-132 -36 -177 -69 -304 -223 -340 -415 l-16 -85 -3473 0 c-2770 0 -3474 3
-3477 13 -2 6 -9 41 -15 77 -30 164 -144 315 -296 390 -55 27 -109 46 -154 53
l-70 10 -3 46 c-2 35 3 55 21 83 37 60 39 117 5 185 -36 70 -36 119 0 187 33
64 33 107 -3 179 -34 68 -33 109 4 181 32 63 32 110 0 171 -38 71 -39 118 -3
183 26 45 30 61 26 103 -3 29 -14 62 -26 79 -35 47 -35 114 -1 176 38 66 38
115 0 185 -35 66 -35 121 0 168 35 47 34 145 -1 192 -33 45 -32 124 2 171 33
48 33 143 -1 189 -33 44 -32 125 1 170 34 45 33 144 -2 191 -19 25 -25 45 -25
83 0 38 6 58 25 83 36 49 36 143 -1 198 -18 26 -26 50 -24 71 4 44 12 53 48
53 98 0 234 67 328 161 83 82 134 181 151 292 l13 77 3475 0 3475 0 18 -87z"/>
<path d="M1091 3978 c-61 -23 -127 -83 -156 -143 -20 -39 -20 -65 -20 -1405
l0 -1365 27 -46 c36 -61 94 -112 154 -135 48 -18 133 -19 3204 -19 l3155 0 47
22 c60 28 118 86 149 149 l24 49 0 1345 0 1345 -24 53 c-31 68 -103 133 -171
155 -49 16 -276 17 -3194 16 l-3141 0 -54 -21z m689 -1548 l0 -1490 -302 0
c-185 0 -318 4 -342 11 -21 6 -58 28 -81 50 -80 74 -75 -29 -75 1438 l0 1306
24 51 c23 51 68 94 116 113 15 6 159 10 343 10 l317 1 0 -1490z m4940 0 l0
-1485 -2430 -3 -2430 -2 0 1490 0 1490 2430 -2 2430 -3 0 -1485z m748 1474
c49 -20 90 -60 113 -109 18 -38 19 -97 19 -1361 l0 -1320 -27 -55 c-21 -40
-40 -61 -77 -84 l-49 -30 -324 -3 -323 -3 0 1490 0 1491 315 0 c263 0 322 -3
353 -16z"/>
</g>
</svg>
